<svg xmlns="http://www.w3.org/2000/svg" viewBox="0 0 732 712"><defs><style>.cls-1{opacity:0.1;}.cls-2,.cls-3{fill:#c4c4c4;}.cls-3{fill-rule:evenodd;}</style></defs><title>Asset 1</title><g id="Layer_2" data-name="Layer 2"><g id="Layer_1-2" data-name="Layer 1"><g class="cls-1"><rect class="cls-2" x="66" y="512" width="534" height="67"/><path class="cls-3" d="M650.51,522.05A131.86,131.86,0,0,0,600,512v67.32A65.65,65.65,0,0,1,665,644v68h67V644a132,132,0,0,0-81.49-122Z"/></g><g class="cls-1"><rect class="cls-2" y="133" width="534" height="67"/><path class="cls-3" d="M584.51,190A131.86,131.86,0,0,1,534,200V132.68a64.66,64.66,0,0,0,59.76-39.93A65,65,0,0,0,599,68V0h67V68a132,132,0,0,1-81.49,122Z"/></g></g></g></svg>