<svg width="90" height="90" viewBox="0 0 90 90" fill="none" xmlns="http://www.w3.org/2000/svg">
<g clip-path="url(#clip0)">
<path d="M51.1262 7.55554C40.6284 7.55554 32.1113 15.662 32.1113 25.6461C32.1113 37.1342 44.7879 55.3397 49.4426 61.6278C49.6358 61.8932 49.889 62.1092 50.1816 62.2581C50.4742 62.4071 50.7979 62.4847 51.1262 62.4847C51.4545 62.4847 51.7782 62.4071 52.0708 62.2581C52.3634 62.1092 52.6166 61.8932 52.8098 61.6278C57.4645 55.3423 70.1411 37.1435 70.1411 25.6461C70.1411 15.662 61.624 7.55554 51.1262 7.55554Z" fill="#004199"/>
<path d="M45.1257 10.5555C34.6279 10.5555 26.1108 18.662 26.1108 28.6461C26.1108 40.1342 38.7874 58.3397 43.4421 64.6278C43.6353 64.8932 43.8886 65.1092 44.1812 65.2581C44.4737 65.4071 44.7974 65.4847 45.1257 65.4847C45.454 65.4847 45.7777 65.4071 46.0703 65.2581C46.3629 65.1092 46.6161 64.8932 46.8093 64.6278C51.464 58.3423 64.1406 40.1435 64.1406 28.6461C64.1406 18.662 55.6235 10.5555 45.1257 10.5555Z" stroke="white" stroke-width="2" stroke-linecap="round" stroke-linejoin="round"/>
<path d="M44.6718 35.9096C48.1723 35.9096 51.0101 33.0719 51.0101 29.5713C51.0101 26.0708 48.1723 23.233 44.6718 23.233C41.1712 23.233 38.3335 26.0708 38.3335 29.5713C38.3335 33.0719 41.1712 35.9096 44.6718 35.9096Z" stroke="white" stroke-width="2" stroke-linecap="round" stroke-linejoin="round"/>
<path d="M59.4441 45H65.8171C66.6601 45 67.4125 45.5285 67.6985 46.3215L78.4781 76.2104C78.9482 77.5139 77.9824 78.8889 76.5967 78.8889H13.9146C12.5412 78.8889 11.5764 77.5364 12.0235 76.2379L22.3131 46.349C22.591 45.5418 23.3505 45 24.2042 45H31.1108" stroke="white" stroke-width="2" stroke-linecap="round"/>
<path d="M17.7778 60.5555H40" stroke="white" stroke-width="2" stroke-linecap="round"/>
<path d="M50.5557 60.5555L72.7779 60.5555" stroke="white" stroke-width="2" stroke-linecap="round"/>
<path d="M60.5557 60.5555V78.3333" stroke="white" stroke-width="2"/>
</g>
<defs>
<clipPath id="clip0">
<rect width="90" height="90" fill="white"/>
</clipPath>
</defs>
</svg>
