<svg width="90" height="90" viewBox="0 0 90 90" fill="none" xmlns="http://www.w3.org/2000/svg">
<g clip-path="url(#clip0)">
<path d="M26.7188 47.9732V81.5625H75.3353V19.6875H56.869C55.253 19.6875 53.7054 20.3393 52.5764 21.4954L26.7188 47.9732Z" fill="#004199"/>
<path d="M20.6914 42.3482V75.9375H69.3079V14.0625H50.8416C49.2257 14.0625 47.678 14.7143 46.549 15.8704L20.6914 42.3482Z" stroke="white" stroke-width="2" stroke-linecap="round" stroke-linejoin="round"/>
<path d="M50.43 21.1619L45.3159 26.4375H63.3102V20.25H52.584C51.7722 20.25 50.9951 20.579 50.43 21.1619Z" fill="white"/>
<path d="M45.3159 26.4375L44.5979 25.7415C44.3184 26.0298 44.2385 26.4575 44.395 26.8273C44.5516 27.1972 44.9143 27.4375 45.3159 27.4375V26.4375ZM50.43 21.1619L49.712 20.4659L49.712 20.4659L50.43 21.1619ZM63.3102 20.25H64.3102C64.3102 19.6977 63.8625 19.25 63.3102 19.25V20.25ZM63.3102 26.4375V27.4375C63.8625 27.4375 64.3102 26.9898 64.3102 26.4375H63.3102ZM46.0339 27.1335L51.148 21.8579L49.712 20.4659L44.5979 25.7415L46.0339 27.1335ZM52.584 21.25H63.3102V19.25H52.584V21.25ZM62.3102 20.25V26.4375H64.3102V20.25H62.3102ZM63.3102 25.4375H45.3159V27.4375H63.3102V25.4375ZM51.148 21.8579C51.5247 21.4693 52.0428 21.25 52.584 21.25V19.25C51.5016 19.25 50.4654 19.6887 49.712 20.4659L51.148 21.8579Z" fill="white"/>
<line x1="1" y1="-1" x2="31.3569" y2="-1" transform="matrix(0.696031 0.718011 -0.696031 0.718011 33.9507 44.6973)" stroke="white" stroke-width="2" stroke-linecap="round"/>
<line x1="1" y1="-1" x2="31.3569" y2="-1" transform="matrix(-0.696031 0.718011 0.696031 0.718011 57.8804 44.6973)" stroke="white" stroke-width="2" stroke-linecap="round"/>
<path d="M23.6094 30.2384C23.2189 29.8478 23.2189 29.2147 23.6095 28.8241L31.5707 20.8629C31.9612 20.4724 32.5944 20.4724 32.9849 20.8629L36.9656 24.8435L27.5901 34.219L23.6094 30.2384Z" stroke="white" stroke-width="2"/>
</g>
<defs>
<clipPath id="clip0">
<rect width="90" height="90" fill="white"/>
</clipPath>
</defs>
</svg>
