<svg width="91" height="90" viewBox="0 0 91 90" fill="none" xmlns="http://www.w3.org/2000/svg">
<g clip-path="url(#clip0)">
<path d="M54.0066 19.1599L21.0691 52.0974C19.8975 53.269 19.8975 55.1685 21.0691 56.3401L45.5764 80.8474C46.748 82.019 48.6475 82.019 49.8191 80.8474L82.7566 47.9099C83.3192 47.3473 83.6353 46.5843 83.6353 45.7886V21.2812C83.6353 19.6244 82.2921 18.2812 80.6353 18.2812H56.1279C55.3322 18.2812 54.5692 18.5973 54.0066 19.1599Z" fill="#004199"/>
<path d="M60.4424 29.375L30.6666 59.1508" stroke="white" stroke-width="2" stroke-linecap="round"/>
<path d="M59.2793 45.7509C59.1364 46.2844 59.453 46.8327 59.9865 46.9756C60.52 47.1185 61.0683 46.8019 61.2112 46.2685L59.2793 45.7509ZM48.6692 57.5857L48.0345 56.813L48.6692 57.5857ZM36.0853 55.1306L35.3908 55.8501L36.0853 55.1306ZM33.0389 42.6872C33.1784 42.1528 32.8583 41.6066 32.3239 41.4671C31.7895 41.3276 31.2432 41.6477 31.1038 42.1821L33.0389 42.6872ZM61.2112 46.2685C63.1591 38.9974 60.3079 33.7301 56.3055 30.9094C54.328 29.5157 52.0672 28.7163 49.9751 28.566C47.9017 28.417 45.8596 28.9032 44.4992 30.2636L45.9134 31.6778C46.7235 30.8678 48.1051 30.4368 49.8317 30.5608C51.5397 30.6835 53.4551 31.3473 55.1534 32.5442C58.5025 34.9045 61.0002 39.3272 59.2793 45.7509L61.2112 46.2685ZM44.4992 30.2636C42.1162 32.6466 41.3717 35.2602 41.8972 37.8821C42.4066 40.4238 44.0815 42.8357 46.2309 44.9851L47.6451 43.5709C45.617 41.5428 44.2556 39.4715 43.8582 37.4891C43.477 35.5871 43.9554 33.6358 45.9134 31.6778L44.4992 30.2636ZM46.2309 44.9851C48.2247 46.979 49.5745 49.2686 49.9633 51.3839C50.342 53.4442 49.8221 55.3444 48.0345 56.813L49.304 58.3584C51.7208 56.373 52.424 53.708 51.9303 51.0224C51.4468 48.3918 49.8287 45.7545 47.6451 43.5709L46.2309 44.9851ZM48.0345 56.813C46.4101 58.1475 44.6035 58.4614 42.7119 58.0143C40.7776 57.5573 38.7284 56.2922 36.7799 54.4112L35.3908 55.8501C37.4944 57.8809 39.8505 59.3933 42.2519 59.9607C44.6959 60.5383 47.1552 60.1238 49.304 58.3584L48.0345 56.813ZM36.7799 54.4112C33.1315 50.8892 31.9261 46.9509 33.0389 42.6872L31.1038 42.1821C29.7839 47.2389 31.2965 51.8976 35.3908 55.8501L36.7799 54.4112Z" fill="white"/>
<path d="M45.3932 14.6483L9.11197 50.9295C8.33092 51.7106 8.33092 52.9769 9.11197 53.758L36.9085 81.5545C37.6896 82.3356 38.9559 82.3356 39.737 81.5545L76.0182 45.2733C76.3933 44.8982 76.604 44.3895 76.604 43.8591V16.0625C76.604 14.9579 75.7086 14.0625 74.604 14.0625H46.8074C46.277 14.0625 45.7683 14.2732 45.3932 14.6483Z" stroke="white" stroke-width="2"/>
</g>
<defs>
<clipPath id="clip0">
<rect width="90" height="90" fill="white" transform="translate(0.666504)"/>
</clipPath>
</defs>
</svg>
