<svg width="90" height="90" viewBox="0 0 90 90" fill="none" xmlns="http://www.w3.org/2000/svg">
<g clip-path="url(#clip0)">
<path d="M13 52.5086V43.6205C13 41.2811 13.8202 39.0158 15.3178 37.2187L35.0015 13.5982C36.9015 11.3182 39.716 10 42.6838 10H74C79.5229 10 84 14.4772 84 20V55V65C84 68.3137 81.3137 71 78 71H33.5221C26.1242 71 19.3305 66.9163 15.8598 60.3831L14.1688 57.2002C13.4013 55.7555 13 54.1445 13 52.5086Z" fill="#CDDCF8" fill-opacity="0.4"/>
<path d="M76 37V24.5C76 18.9772 71.5228 14.5 66 14.5H35.6838C32.716 14.5 29.9015 15.8182 28.0015 18.0982L8.31779 41.7187C6.82016 43.5158 6 45.7811 6 48.1205V57.0086C6 58.6445 6.40134 60.2555 7.16884 61.7002L8.85978 64.8831C12.3305 71.4163 19.1242 75.5 26.5221 75.5H70C73.3137 75.5 76 72.8137 76 69.5V59.5" stroke="#0451DD" stroke-width="2" stroke-linecap="round"/>
<path d="M59 43V32.5C59 31.3954 58.1046 30.5 57 30.5H36.4931C35.8675 30.5 35.2779 30.7928 34.8998 31.2912L26.9342 41.7912C25.9351 43.1083 26.8745 45 28.5276 45H57C58.1046 45 59 44.1046 59 43Z" stroke="#0451DD" stroke-width="2"/>
<path d="M44.5 59H59" stroke="#0451DD" stroke-width="2" stroke-linecap="round"/>
<path d="M71.8857 54.1658C73.9538 51.2869 77.8692 50.5591 80.5715 54.4857" stroke="#0451DD" stroke-width="2" stroke-linecap="round"/>
<path d="M69.7144 50.2379C72.9456 46.2074 79.0636 45.1885 83.2858 50.6857" stroke="#0451DD" stroke-width="2" stroke-linecap="round"/>
<path d="M67 46.31C71.5238 41.1279 80.0889 39.8179 86 46.8857" stroke="#0451DD" stroke-width="2" stroke-linecap="round"/>
</g>
<defs>
<clipPath id="clip0">
<rect width="90" height="90" fill="white"/>
</clipPath>
</defs>
</svg>
