<svg width="90" height="90" viewBox="0 0 90 90" fill="none" xmlns="http://www.w3.org/2000/svg">
<g clip-path="url(#clip0)">
<path d="M31.0373 46.5556V65.8444H69.5945V46.8551C69.824 38.0293 69.5944 19 50.3158 19C31.0373 19 30.8078 37.7298 31.0373 46.5556Z" fill="#CDDCF8" fill-opacity="0.4"/>
<path d="M67.3167 21.7444C72.4515 21.1793 77.498 24.7848 76.5965 31.6575" stroke="#0451DD" stroke-width="2" stroke-linecap="round"/>
<path d="M68.1747 17.0476C75.0378 16.5821 82.0206 21.7122 81.2026 30.8897" stroke="#0451DD" stroke-width="2" stroke-linecap="round"/>
<path d="M16.9845 31.2229C15.1096 26.4092 17.2862 20.6015 24.158 19.6936" stroke="#0451DD" stroke-width="2" stroke-linecap="round"/>
<path d="M12.2255 31.6094C9.99962 25.1007 13.1476 17.0281 22.2241 15.4429" stroke="#0451DD" stroke-width="2" stroke-linecap="round"/>
<path d="M69 68.0445H21M25.7214 68.0445V48.7556C25.4919 39.9298 25.7214 21.2 44.9999 21.2C64.2785 21.2 64.5081 40.2293 64.2786 49.0551V68.0445H25.7214Z" stroke="#0451DD" stroke-width="2" stroke-linecap="round"/>
<mask id="path-7-inside-1" fill="white">
<path d="M38.2222 68.8889C38.2222 70.7159 38.948 72.4681 40.2399 73.7601C41.5319 75.052 43.2841 75.7778 45.1111 75.7778C46.9382 75.7778 48.6904 75.052 49.9823 73.7601C51.2742 72.4681 52 70.7159 52 68.8889L49.8644 68.8889C49.8644 70.1495 49.3636 71.3586 48.4722 72.25C47.5808 73.1414 46.3718 73.6422 45.1111 73.6422C43.8505 73.6422 42.6414 73.1414 41.75 72.25C40.8586 71.3586 40.3578 70.1495 40.3578 68.8889L38.2222 68.8889Z"/>
</mask>
<path d="M38.2222 68.8889C38.2222 70.7159 38.948 72.4681 40.2399 73.7601C41.5319 75.052 43.2841 75.7778 45.1111 75.7778C46.9382 75.7778 48.6904 75.052 49.9823 73.7601C51.2742 72.4681 52 70.7159 52 68.8889L49.8644 68.8889C49.8644 70.1495 49.3636 71.3586 48.4722 72.25C47.5808 73.1414 46.3718 73.6422 45.1111 73.6422C43.8505 73.6422 42.6414 73.1414 41.75 72.25C40.8586 71.3586 40.3578 70.1495 40.3578 68.8889L38.2222 68.8889Z" stroke="#0451DD" stroke-width="4" mask="url(#path-7-inside-1)"/>
<path d="M45 20.5111V15" stroke="#0451DD" stroke-width="2.75556" stroke-linecap="round"/>
</g>
<defs>
<clipPath id="clip0">
<rect width="90" height="90" fill="white"/>
</clipPath>
</defs>
</svg>
