<svg width="90" height="86" viewBox="0 0 90 86" fill="none" xmlns="http://www.w3.org/2000/svg">
<circle cx="53.4469" cy="49.1516" r="36.5523" fill="#CDDCF8" fill-opacity="0.4"/>
<circle cx="40.2888" cy="40.2888" r="39.2888" stroke="#0451DD" stroke-width="2"/>
<path d="M19.3913 50.6859C17.7941 47.5338 16.8945 43.9711 16.8945 40.1991C16.8945 27.3288 27.3682 16.8953 40.288 16.8953C53.2079 16.8953 63.6815 27.3288 63.6815 40.1991C63.6815 43.9711 62.7819 47.5338 61.1848 50.6859" stroke="#0451DD" stroke-linecap="round" stroke-dasharray="0.1 10"/>
<mask id="path-4-inside-1" fill="white">
<path fill-rule="evenodd" clip-rule="evenodd" d="M61.434 64.6446C68.379 58.6857 72.7788 49.8446 72.7788 39.976C72.7788 22.0317 58.2321 7.48499 40.2878 7.48499C22.3436 7.48499 7.79688 22.0317 7.79688 39.976C7.79688 49.8451 12.1971 58.6865 19.1426 64.6454C24.8258 59.7692 32.2132 56.823 40.2888 56.823C48.3639 56.823 55.751 59.7689 61.434 64.6446Z"/>
</mask>
<path d="M61.434 64.6446L60.1318 66.1625L61.4341 67.2798L62.7364 66.1624L61.434 64.6446ZM19.1426 64.6454L17.8403 66.1633L19.1427 67.2806L20.445 66.1633L19.1426 64.6454ZM70.7788 39.976C70.7788 49.2367 66.6528 57.5316 60.1317 63.1267L62.7364 66.1624C70.1053 59.8398 74.7788 50.4526 74.7788 39.976H70.7788ZM40.2878 9.48499C57.1276 9.48499 70.7788 23.1363 70.7788 39.976H74.7788C74.7788 20.9271 59.3367 5.48499 40.2878 5.48499V9.48499ZM9.79688 39.976C9.79688 23.1363 23.4481 9.48499 40.2878 9.48499V5.48499C21.239 5.48499 5.79688 20.9271 5.79688 39.976H9.79688ZM20.4449 63.1275C13.9233 57.5324 9.79688 49.2371 9.79688 39.976H5.79688C5.79688 50.4531 10.4708 59.8407 17.8403 66.1633L20.4449 63.1275ZM20.445 66.1633C25.7792 61.5864 32.7088 58.823 40.2888 58.823V54.823C31.7177 54.823 23.8723 57.952 17.8403 63.1275L20.445 66.1633ZM40.2888 58.823C47.8684 58.823 54.7976 61.5861 60.1318 66.1625L62.7363 63.1267C56.7045 57.9517 48.8595 54.823 40.2888 54.823V58.823Z" fill="#0451DD" mask="url(#path-4-inside-1)"/>
<path d="M40.2892 38.4508L51.9859 20.1445" stroke="#0451DD" stroke-width="2" stroke-linecap="round"/>
</svg>
