<svg width="462" height="598" viewBox="0 0 462 598" fill="none" xmlns="http://www.w3.org/2000/svg">
<path fill-rule="evenodd" clip-rule="evenodd" d="M184.578 22.76C219.011 8.49713 255.792 0.804507 293.02 0.0598179L293.02 3.49423e-06L299 3.56554e-06L598 7.13108e-06L598 203.32L299 203.32C286.435 203.32 273.993 205.795 262.385 210.603C250.776 215.412 240.229 222.459 231.344 231.344C222.459 240.229 215.412 250.776 210.603 262.385C205.795 273.993 203.32 286.435 203.32 299C203.32 311.565 205.795 324.007 210.603 335.615C215.412 347.224 222.459 357.771 231.344 366.656C240.229 375.541 250.776 382.588 262.385 387.397C273.993 392.205 286.435 394.68 299 394.68L598 394.68L598 598L299 598C298.985 598 298.97 598 298.954 598L293.02 598L293.02 597.94C255.792 597.196 219.011 589.503 184.578 575.24C148.301 560.214 115.34 538.19 87.5751 510.425C59.8104 482.66 37.7862 449.699 22.76 413.422C7.73387 377.146 3.09731e-06 338.265 3.56554e-06 299C4.03377e-06 259.735 7.73386 220.854 22.76 184.578C37.7862 148.301 59.8104 115.34 87.5751 87.5751C115.34 59.8104 148.301 37.7862 184.578 22.76Z" fill="#C4C4C4" fill-opacity="0.1"/>
</svg>
