<svg width="226" height="550" viewBox="0 0 226 550" fill="none" xmlns="http://www.w3.org/2000/svg">
<path fill-rule="evenodd" clip-rule="evenodd" d="M103.782 503.654C58.5582 533.872 5.38972 550 -49.0001 550L-49.0001 401.276C20.7399 401.276 77.2754 344.74 77.2754 275C77.2754 205.26 20.7399 148.725 -49.0001 148.725C-118.74 148.725 -175.276 205.26 -175.276 275L-324 275C-324 220.61 -307.872 167.442 -277.654 122.218C-247.437 76.9948 -204.488 41.7473 -154.238 20.9332C-103.988 0.119139 -48.6951 -5.32678 4.64972 5.28416C57.9945 15.8951 106.995 42.0863 145.454 80.5457C183.914 119.005 210.105 168.006 220.716 221.35C231.327 274.695 225.881 329.988 205.067 380.238C184.253 430.488 149.005 473.437 103.782 503.654ZM-175.276 275C-175.276 344.74 -118.74 401.276 -49.0001 401.276L-49.0001 275L-175.276 275Z" fill="#C4C4C4" fill-opacity="0.08"/>
</svg>
