<svg width="239" height="426" viewBox="0 0 239 426" fill="none" xmlns="http://www.w3.org/2000/svg">
<path fill-rule="evenodd" clip-rule="evenodd" d="M427.782 379.654C382.558 409.872 329.39 426 275 426L275 277.276C344.74 277.276 401.275 220.74 401.275 151C401.275 81.2601 344.74 24.7246 275 24.7246C205.26 24.7246 148.724 81.2601 148.724 151L-0.000134091 151C-0.000131713 96.6102 16.1283 43.4418 46.3457 -1.78171C76.5631 -47.0052 119.512 -82.2527 169.762 -103.067C220.012 -123.881 275.305 -129.327 328.65 -118.716C381.994 -108.105 430.995 -81.9137 469.454 -43.4543C507.914 -4.99481 534.105 44.0055 544.716 97.3503C555.327 150.695 549.881 205.988 529.067 256.238C508.253 306.488 473.005 349.437 427.782 379.654ZM148.724 151C148.724 220.74 205.26 277.276 275 277.276L275 151L148.724 151Z" fill="#C4C4C4" fill-opacity="0.08"/>
</svg>
