<svg width="455" height="454" viewBox="0 0 455 454" fill="none" xmlns="http://www.w3.org/2000/svg">
<path fill-rule="evenodd" clip-rule="evenodd" d="M408.654 122.218C438.872 167.442 455 220.61 455 275H306.276C306.276 205.26 249.74 148.724 180 148.724C110.26 148.724 53.7245 205.26 53.7245 275C53.7245 344.74 110.26 401.276 180 401.276V550C125.61 550 72.4417 533.872 27.2182 503.654C-18.0053 473.437 -53.2528 430.488 -74.0669 380.238C-94.881 329.988 -100.327 274.695 -89.716 221.35C-79.105 168.005 -52.9138 119.005 -14.4544 80.5456C24.0051 42.0862 73.0054 15.895 126.35 5.28405C179.695 -5.32689 234.988 0.119029 285.238 20.9331C335.488 41.7472 378.437 76.9947 408.654 122.218ZM180 401.276C249.74 401.276 306.276 344.74 306.276 275H180V401.276Z" fill="#C4C4C4" fill-opacity="0.08"/>
</svg>
