<svg width="505" height="505" viewBox="0 0 505 505" fill="none" xmlns="http://www.w3.org/2000/svg">
<path fill-rule="evenodd" clip-rule="evenodd" d="M349.128 485.78C320.049 497.824 288.989 504.321 257.55 504.949L257.55 505L252.5 505L3.89609e-05 505L4.64662e-05 333.3L252.5 333.3C263.111 333.3 273.618 331.21 283.421 327.149C293.224 323.089 302.131 317.137 309.634 309.634C317.137 302.131 323.089 293.224 327.149 283.421C331.21 273.618 333.3 263.111 333.3 252.5C333.3 241.889 331.21 231.382 327.149 221.579C323.089 211.776 317.137 202.869 309.634 195.366C302.131 187.863 293.224 181.911 283.421 177.851C273.633 173.796 263.144 171.707 252.55 171.7C252.533 171.7 252.517 171.7 252.5 171.7L2.30123e-05 171.7L3.05176e-05 -1.12579e-05L252.5 -1.10371e-05C252.525 -1.1036e-05 252.549 -7.43161e-06 252.574 -2.17513e-07L257.55 0L257.55 0.0504908C288.989 0.679355 320.049 7.17563 349.128 19.2204C379.762 31.9097 407.598 50.5087 431.044 73.9555C454.491 97.4023 473.09 125.238 485.78 155.872C498.469 186.507 505 219.341 505 252.5C505 285.659 498.469 318.493 485.78 349.128C473.09 379.762 454.491 407.598 431.044 431.044C407.598 454.491 379.762 473.09 349.128 485.78Z" fill="#C4C4C4" fill-opacity="0.1"/>
</svg>
