<svg width="11" height="11" viewBox="0 0 11 11" fill="none" xmlns="http://www.w3.org/2000/svg">
<path fill-rule="evenodd" clip-rule="evenodd" d="M3.9248 3.71767H5.85831V4.59232H5.8853C6.1544 4.0891 6.81208 3.55859 7.79275 3.55859C9.83423 3.55859 10.2111 4.8843 10.2111 6.60734V10.1182H8.19654V7.00559C8.19654 6.26338 8.18266 5.30863 7.14894 5.30863C6.10012 5.30863 5.93901 6.11716 5.93901 6.95185V10.1182H3.9248V3.71767Z" fill="#FAFAFA"/>
<path fill-rule="evenodd" clip-rule="evenodd" d="M1.60437 0.828125C2.20725 0.828125 2.69728 1.34408 2.69728 1.97915C2.69728 2.61488 2.20725 3.13083 1.60437 3.13083C0.999898 3.13083 0.510742 2.61488 0.510742 1.97915C0.510742 1.34408 0.999898 0.828125 1.60437 0.828125Z" fill="#FAFAFA"/>
<path fill-rule="evenodd" clip-rule="evenodd" d="M0.661133 10.3938H2.54703V4.00391H0.661133V10.3938Z" fill="#FAFAFA"/>
</svg>
