<svg width="11" height="8" viewBox="0 0 11 8" fill="none" xmlns="http://www.w3.org/2000/svg">
<path d="M0.777778 0.103516C0.624893 0.103516 0.484569 0.150599 0.364583 0.229102L4.74364 4.37725C4.93547 4.55908 5.18407 4.55907 5.37559 4.37725L9.74653 0.229102C9.62654 0.150599 9.48622 0.103516 9.33333 0.103516H0.777778ZM0.0486111 0.638238C0.0189907 0.723871 0 0.813174 0 0.909658V6.29737C0 6.4611 0.0455907 6.61195 0.125585 6.73893L3.22049 3.64808L0.0486111 0.638238ZM10.0625 0.638238L6.89873 3.64402L9.98553 6.73893C10.0655 6.61195 10.1111 6.4611 10.1111 6.29737V0.909658C10.1111 0.813174 10.0921 0.723871 10.0625 0.638238ZM6.52199 4.00457L5.73207 4.75398C5.35591 5.11112 4.76337 5.11062 4.38716 4.75398L3.59722 4.00861L0.534722 7.06301C0.61132 7.08906 0.692585 7.10352 0.777778 7.10352H9.33333C9.41853 7.10352 9.49979 7.08906 9.57639 7.06301L6.52199 4.00457Z" fill="white"/>
</svg>
