<svg width="14" height="15" viewBox="0 0 14 15" fill="none" xmlns="http://www.w3.org/2000/svg">
<path d="M11.3333 10.6024C10.7844 10.6024 10.2933 10.8283 9.91778 11.1822L4.76833 8.05723C4.80444 7.88404 4.83333 7.71084 4.83333 7.53012C4.83333 7.3494 4.80444 7.17621 4.76833 7.00301L9.86 3.90813C10.25 4.28464 10.7628 4.51807 11.3333 4.51807C12.5322 4.51807 13.5 3.50904 13.5 2.25904C13.5 1.00904 12.5322 0 11.3333 0C10.1344 0 9.16667 1.00904 9.16667 2.25904C9.16667 2.43976 9.19556 2.61295 9.23167 2.78614L4.14 5.88102C3.75 5.50452 3.23722 5.27108 2.66667 5.27108C1.46778 5.27108 0.5 6.28012 0.5 7.53012C0.5 8.78012 1.46778 9.78916 2.66667 9.78916C3.23722 9.78916 3.75 9.55572 4.14 9.17922L9.28222 12.3117C9.24611 12.4699 9.22444 12.6355 9.22444 12.8012C9.22444 14.0136 10.1706 15 11.3333 15C12.4961 15 13.4422 14.0136 13.4422 12.8012C13.4422 11.5889 12.4961 10.6024 11.3333 10.6024ZM11.3333 1.50602C11.7306 1.50602 12.0556 1.84488 12.0556 2.25904C12.0556 2.67319 11.7306 3.01205 11.3333 3.01205C10.9361 3.01205 10.6111 2.67319 10.6111 2.25904C10.6111 1.84488 10.9361 1.50602 11.3333 1.50602ZM2.66667 8.28313C2.26944 8.28313 1.94444 7.94428 1.94444 7.53012C1.94444 7.11596 2.26944 6.77711 2.66667 6.77711C3.06389 6.77711 3.38889 7.11596 3.38889 7.53012C3.38889 7.94428 3.06389 8.28313 2.66667 8.28313ZM11.3333 13.5693C10.9361 13.5693 10.6111 13.2304 10.6111 12.8163C10.6111 12.4021 10.9361 12.0633 11.3333 12.0633C11.7306 12.0633 12.0556 12.4021 12.0556 12.8163C12.0556 13.2304 11.7306 13.5693 11.3333 13.5693Z" fill="white"/>
</svg>
