<svg width="10" height="9" viewBox="0 0 10 9" fill="none" xmlns="http://www.w3.org/2000/svg">
<path fill-rule="evenodd" clip-rule="evenodd" d="M3.42653 8.19483C6.92533 8.19483 8.83903 5.37845 8.83903 2.9361C8.83903 2.85611 8.83903 2.77647 8.83346 2.6972C9.20576 2.43557 9.52712 2.11161 9.78252 1.74051C9.43534 1.88998 9.06705 1.988 8.68994 2.0313C9.08704 1.80032 9.38425 1.43703 9.52625 1.00903C9.15284 1.22432 8.74432 1.37604 8.31832 1.45765C7.72867 0.848466 6.79171 0.699366 6.03285 1.09396C5.27398 1.48855 4.88193 2.3287 5.07654 3.1433C3.54703 3.0688 2.12198 2.36689 1.15606 1.21226C0.651162 2.05676 0.909053 3.13712 1.745 3.67947C1.44227 3.67076 1.14615 3.59141 0.881613 3.44814C0.881613 3.45571 0.881613 3.46363 0.881613 3.47156C0.881861 4.35135 1.52016 5.10911 2.40775 5.28332C2.12769 5.35753 1.83386 5.36838 1.54881 5.31503C1.79802 6.06792 2.51218 6.58369 3.32603 6.59855C2.65243 7.1129 1.82031 7.39212 0.963576 7.39128C0.812225 7.391 0.661021 7.3821 0.510742 7.36462C1.38067 7.90702 2.39288 8.19473 3.42653 8.19339" fill="#FAFAFA"/>
</svg>
