<svg width="12" height="12" viewBox="0 0 12 12" fill="none" xmlns="http://www.w3.org/2000/svg">
<path fill-rule="evenodd" clip-rule="evenodd" d="M9.4112 1.60763C8.37627 0.571481 6.99989 0.000607671 5.53358 0C2.5121 0 0.0530552 2.45898 0.0518399 5.48127C0.0514348 6.4474 0.303821 7.3905 0.783544 8.2218L0.00585938 11.0623L2.91181 10.3C3.71252 10.7368 4.61397 10.967 5.53135 10.9673H5.53365C8.55479 10.9673 11.0141 8.50808 11.0152 5.48565C11.0159 4.0209 10.4462 2.64371 9.4112 1.60763ZM5.53358 10.0415H5.53169C4.71417 10.0412 3.91238 9.82146 3.21275 9.40642L3.04645 9.30764L1.32201 9.76002L1.78229 8.07872L1.67392 7.90635C1.21783 7.18092 0.976986 6.34247 0.977391 5.4816C0.978337 2.96956 3.02227 0.925821 5.5354 0.925821C6.75237 0.926227 7.89634 1.40075 8.75653 2.26196C9.61673 3.12316 10.0902 4.26788 10.0898 5.48532C10.0887 7.99757 8.04488 10.0415 5.53358 10.0415ZM8.03273 6.62916C7.8958 6.56056 7.22237 6.22931 7.09678 6.18353C6.97133 6.13782 6.87991 6.11507 6.78869 6.25213C6.69734 6.38919 6.43489 6.69776 6.35495 6.78911C6.27501 6.88053 6.1952 6.89201 6.0582 6.82341C5.92121 6.75488 5.4799 6.61018 4.9567 6.14356C4.54956 5.78038 4.27469 5.33185 4.19474 5.19478C4.11494 5.05758 4.19407 4.9906 4.25483 4.91525C4.40311 4.73113 4.55158 4.53809 4.59722 4.44674C4.64293 4.35532 4.62005 4.27531 4.58575 4.20678C4.55158 4.13824 4.27766 3.46407 4.16355 3.18974C4.05228 2.92277 3.93945 2.95882 3.85532 2.95463C3.77552 2.95065 3.68416 2.94984 3.59281 2.94984C3.50152 2.94984 3.35312 2.98407 3.22753 3.12127C3.10201 3.2584 2.74821 3.58972 2.74821 4.2639C2.74821 4.93807 3.23901 5.58936 3.30747 5.68078C3.37594 5.7722 4.27333 7.15567 5.64728 7.74889C5.97407 7.89014 6.22916 7.97434 6.42814 8.03747C6.75628 8.14172 7.05478 8.127 7.29083 8.09175C7.55402 8.05239 8.10113 7.76037 8.21537 7.44047C8.32948 7.12049 8.32948 6.8463 8.29518 6.78911C8.26101 6.73199 8.16966 6.69776 8.03273 6.62916Z" fill="white"/>
</svg>
