<svg width="91" height="90" viewBox="0 0 91 90" fill="none" xmlns="http://www.w3.org/2000/svg">
<g clip-path="url(#clip0)">
<rect x="22.7861" y="8.4375" width="39.375" height="61.875" rx="1" fill="#CDDCF8" fill-opacity="0.4"/>
<rect x="14.3486" y="14.0625" width="39.375" height="61.875" stroke="#0451DD" stroke-width="2" stroke-linejoin="round"/>
<rect x="22.7861" y="22.5" width="22.5" height="11.25" fill="white" stroke="#0451DD" stroke-width="2" stroke-linejoin="round"/>
<path d="M65.6378 30.1899C65.2249 29.8231 64.5929 29.8604 64.2261 30.2733C63.8592 30.6862 63.8966 31.3183 64.3095 31.6851L65.6378 30.1899ZM75.8878 40.6341L76.552 39.8865L75.8878 40.6341ZM53.7236 61.4036H63.9736V59.4036H53.7236V61.4036ZM63.9736 61.4036V74.9375H65.9736V61.4036H63.9736ZM65.9736 76.9375H75.2236V74.9375H65.9736V76.9375ZM77.2236 74.9375V41.3816H75.2236V74.9375H77.2236ZM76.552 39.8865L65.6378 30.1899L64.3095 31.6851L75.2236 41.3816L76.552 39.8865ZM77.2236 41.3816C77.2236 40.8102 76.9792 40.266 76.552 39.8865L75.2236 41.3816L75.2236 41.3816H77.2236ZM75.2236 76.9375C76.3282 76.9375 77.2236 76.0421 77.2236 74.9375H75.2236L75.2236 74.9375V76.9375ZM63.9736 74.9375C63.9736 76.0421 64.8691 76.9375 65.9736 76.9375V74.9375L65.9736 74.9375H63.9736ZM63.9736 61.4036L63.9736 61.4036H65.9736C65.9736 60.299 65.0782 59.4036 63.9736 59.4036V61.4036Z" fill="#0451DD"/>
<circle cx="70.5986" cy="45" r="5.625" fill="white" stroke="#0451DD" stroke-width="2"/>
</g>
<defs>
<clipPath id="clip0">
<rect width="90" height="90" fill="white" transform="translate(0.286133)"/>
</clipPath>
</defs>
</svg>
