<svg width="1497" height="1744" viewBox="0 0 1497 1744" fill="none" xmlns="http://www.w3.org/2000/svg">
<rect x="366" width="231" height="68" transform="rotate(90 366 0)" fill="url(#paint0_linear)"/>
<path d="M803 1349.5C803 1567.38 623.242 1744 401.5 1744C179.758 1744 0 1567.38 0 1349.5C0 1131.62 179.758 955 401.5 955C623.242 955 803 1131.62 803 1349.5Z" fill="#CDDCF8" fill-opacity="0.3"/>
<path d="M701 635L186 635L186 568H701V635Z" fill="#CDDCF8" fill-opacity="0.3"/>
<path d="M121.33 568L121.33 434H54L54 567.67C54 567.78 54.0003 567.89 54.0008 568C54.0008 605.003 83.9969 635 121 635H194V568H121.33Z" fill="#CDDCF8" fill-opacity="0.3"/>
<path d="M135.486 244.048C151.501 237.414 168.665 234 186 234V301.32C177.506 301.32 169.095 302.993 161.248 306.243C153.401 309.494 146.27 314.258 140.264 320.264C134.258 326.27 129.494 333.401 126.243 341.248C122.993 349.095 121 357.506 121 366L121 434H54L54 366C54 348.666 57.4143 331.501 64.0479 315.486C70.6815 299.471 80.4046 284.919 92.6619 272.662C104.919 260.405 119.471 250.682 135.486 244.048Z" fill="#CDDCF8" fill-opacity="0.3"/>
<path d="M751.514 528.048C735.499 521.414 718.334 518 701 518V585.32C709.494 585.32 717.905 586.993 725.752 590.243C733.599 593.494 740.73 598.258 746.736 604.264C752.742 610.27 757.506 617.401 760.757 625.248C764.007 633.095 766 641.506 766 650V718H833V650C833 632.666 829.586 615.501 822.952 599.486C816.318 583.471 806.595 568.919 794.338 556.662C782.081 544.405 767.529 534.682 751.514 528.048Z" fill="#CDDCF8" fill-opacity="0.3"/>
<path d="M832.655 823H963V891H835C834.215 891 833.434 890.987 832.655 890.96V891C796.395 891 767 861.605 767 825.345V768H832.655V823Z" fill="#CDDCF8" fill-opacity="0.3"/>
<path d="M1497 891H963V823H1497V891Z" fill="#CDDCF8" fill-opacity="0.3"/>
<defs>
<linearGradient id="paint0_linear" x1="622.5" y1="-1.1212e-05" x2="324.5" y2="1.81402e-06" gradientUnits="userSpaceOnUse">
<stop offset="0.46314" stop-color="#CDDCF8" stop-opacity="0.5"/>
<stop offset="1" stop-color="white" stop-opacity="0"/>
</linearGradient>
</defs>
</svg>
