<svg width="363" height="177" viewBox="0 0 363 177" fill="none" xmlns="http://www.w3.org/2000/svg">
<path fill-rule="evenodd" clip-rule="evenodd" d="M243.341 6.71492C253.292 2.50694 263.921 0.237393 274.68 0.0176964L274.68 5.72563e-05L276.408 5.71792e-05L362.816 5.33233e-05L362.816 59.9853L276.408 59.9853C272.777 59.9853 269.181 60.7155 265.826 62.1341C262.472 63.5527 259.424 65.6319 256.856 68.2532C254.288 70.8744 252.252 73.9863 250.862 77.4111C249.472 80.836 248.757 84.5067 248.757 88.2137C248.757 91.9207 249.472 95.5914 250.862 99.0162C252.252 102.441 254.288 105.553 256.856 108.174C259.424 110.795 262.472 112.875 265.826 114.293C269.181 115.712 272.777 116.442 276.408 116.442L362.816 116.442L362.816 176.427L276.408 176.427L274.68 176.427L274.68 176.41C263.921 176.19 253.292 173.92 243.341 169.712C232.857 165.279 223.332 158.781 215.308 150.59C207.285 142.399 200.92 132.674 196.577 121.972C192.235 111.269 190 99.798 190 88.2137C190 76.6293 192.235 65.1583 196.577 54.4558C200.92 43.7532 207.285 34.0286 215.308 25.8372C223.332 17.6458 232.857 11.1481 243.341 6.71492Z" fill="#F2F2F2" fill-opacity="0.1"/>
</svg>
