<svg width="463" height="598" fill="none" xmlns="http://www.w3.org/2000/svg">
  <path fill-rule="evenodd" clip-rule="evenodd" d="M184.578 22.76C219.011 8.49713 255.792.804507 293.02.0598179V.0000035l5.98 7e-8 299 .00000356V203.32H299c-12.565 0-25.007 2.475-36.615 7.283-11.609 4.809-22.156 11.856-31.041 20.741-8.885 8.885-15.932 19.432-20.741 31.041-4.808 11.608-7.283 24.05-7.283 36.615 0 12.565 2.475 25.007 7.283 36.615 4.809 11.609 11.856 22.156 20.741 31.041 8.885 8.885 19.432 15.932 31.041 20.741 11.608 4.808 24.05 7.283 36.615 7.283h299V598H293.02v-.06c-37.228-.744-74.009-8.437-108.442-22.7-36.277-15.026-69.238-37.05-97.0029-64.815-27.7647-27.765-49.7889-60.726-64.8151-97.003C7.73387 377.146.0000031 338.265.00000357 299 .00000403 259.735 7.73386 220.854 22.76 184.578c15.0262-36.277 37.0504-69.238 64.8151-97.0029C115.34 59.8104 148.301 37.7862 184.578 22.76z" fill="#C4C4C4" fill-opacity=".1"/>
</svg>
