<svg width="75" height="75" viewBox="0 0 75 75" fill="none" xmlns="http://www.w3.org/2000/svg">
<g clip-path="url(#clip0)">
<path d="M22.3071 39.8832V67.7986H62.7114V16.3755H47.7913C46.1753 16.3755 44.6277 17.0273 43.4987 18.1834L22.3071 39.8832Z" fill="#CDDCF8" fill-opacity="0.4"/>
<path d="M17.2979 35.2084V63.1238H57.7021V11.7007H42.782C41.166 11.7007 39.6184 12.3525 38.4894 13.5086L17.2979 35.2084Z" stroke="#0451DD" stroke-width="2" stroke-linecap="round" stroke-linejoin="round"/>
<path d="M41.8636 17.7549L37.7627 21.9853H52.7174V16.843H44.0176C43.2058 16.843 42.4287 17.172 41.8636 17.7549Z" fill="white"/>
<path d="M37.7627 21.9853L37.0447 21.2893C36.7651 21.5777 36.6852 22.0053 36.8418 22.3752C36.9984 22.745 37.3611 22.9853 37.7627 22.9853V21.9853ZM41.8636 17.7549L41.1456 17.0589L41.1456 17.0589L41.8636 17.7549ZM52.7174 16.843H53.7174C53.7174 16.2907 53.2697 15.843 52.7174 15.843V16.843ZM52.7174 21.9853V22.9853C53.2697 22.9853 53.7174 22.5376 53.7174 21.9853H52.7174ZM38.4807 22.6814L42.5816 18.451L41.1456 17.0589L37.0447 21.2893L38.4807 22.6814ZM44.0176 17.843H52.7174V15.843H44.0176V17.843ZM51.7174 16.843V21.9853H53.7174V16.843H51.7174ZM52.7174 20.9853H37.7627V22.9853H52.7174V20.9853ZM42.5816 18.451C42.9583 18.0624 43.4764 17.843 44.0176 17.843V15.843C42.9352 15.843 41.899 16.2817 41.1456 17.0589L42.5816 18.451Z" fill="#0451DD"/>
<line x1="1" y1="-1" x2="25.8912" y2="-1" transform="matrix(0.696031 0.718011 -0.696031 0.718011 28.3174 37.1606)" stroke="#0451DD" stroke-width="2" stroke-linecap="round"/>
<line x1="1" y1="-1" x2="25.8912" y2="-1" transform="matrix(-0.696031 0.718011 0.696031 0.718011 48.2051 37.1606)" stroke="#0451DD" stroke-width="2" stroke-linecap="round"/>
<path d="M19.8424 25.2636C19.4518 24.8731 19.4518 24.2399 19.8424 23.8494L26.2199 17.4718C26.6105 17.0813 27.2436 17.0813 27.6341 17.4718L30.8229 20.6606L23.0311 28.4524L19.8424 25.2636Z" stroke="#0451DD" stroke-width="2"/>
</g>
<defs>
<clipPath id="clip0">
<rect width="74.7973" height="74.7973" fill="white" transform="translate(0.101562 0.0135498)"/>
</clipPath>
</defs>
</svg>
