<svg width="91" height="91" viewBox="0 0 91 91" fill="none" xmlns="http://www.w3.org/2000/svg">
<ellipse cx="52.1106" cy="35.7552" rx="22.4914" ry="22.4914" fill="#CDDCF8" fill-opacity="0.4"/>
<path d="M30.4023 70.5771V89.6485L45.0175 80.361L59.6436 89.6485V70.5771" stroke="#0451DD" stroke-width="1.96094" stroke-miterlimit="10" stroke-linecap="round" stroke-linejoin="round"/>
<path d="M53.2008 60.064C65.3839 55.546 71.5977 42.0071 67.0797 29.824C62.5617 17.6409 49.0228 11.4271 36.8397 15.9451C24.6566 20.4631 18.4428 34.002 22.9608 46.1851C27.4788 58.3682 41.0177 64.582 53.2008 60.064Z" stroke="#0451DD" stroke-width="1.96094" stroke-miterlimit="10" stroke-linecap="round" stroke-linejoin="round"/>
<path d="M33.7222 36.4714L42.8994 45.6486L57.9116 30.6475" stroke="#0451DD" stroke-width="1.96094" stroke-miterlimit="10" stroke-linecap="round" stroke-linejoin="round"/>
<path d="M38.8737 9.2929L44.8852 1.40625L50.9187 9.27084L59.6106 4.51679L61.9269 14.1572L71.8101 13.341L70.0011 23.0918L79.3548 26.3678L73.7404 34.5412L80.9542 41.3358L72.505 46.5201L76.3214 55.6642L66.4935 56.9657L66.2729 66.8709L56.7648 64.0582L52.5181 73.0148L44.9844 66.5731L37.4728 73.0368L33.2041 64.0913L23.707 66.9371L23.4423 57.0319L13.6143 55.7634L17.4088 46.6083L8.9375 41.4572L16.1292 34.6294L10.4928 26.4781L19.8354 23.169L17.9934 13.4292L27.8765 14.2014L30.1597 4.56091L38.8737 9.2929Z" stroke="#0451DD" stroke-width="1.96094" stroke-miterlimit="10" stroke-linecap="round" stroke-linejoin="round"/>
</svg>
