<svg width="75" height="75" viewBox="0 0 75 75" fill="none" xmlns="http://www.w3.org/2000/svg">
<g clip-path="url(#clip0)">
<path d="M44.2832 16.0855L17.4162 42.9524C16.2447 44.124 16.2447 46.0235 17.4162 47.1951L37.0672 66.846C38.2388 68.0176 40.1383 68.0176 41.3098 66.846L68.1768 39.979C68.7394 39.4164 69.0555 38.6534 69.0555 37.8577V18.2068C69.0555 16.5499 67.7123 15.2068 66.0555 15.2068H46.4045C45.6089 15.2068 44.8458 15.5229 44.2832 16.0855Z" fill="#CDDCF8" fill-opacity="0.4"/>
<path d="M49.7798 24.4265L25.0337 49.1726" stroke="#0451DD" stroke-width="2" stroke-linecap="round"/>
<path d="M48.6501 37.9926C48.5072 38.526 48.8238 39.0744 49.3573 39.2173C49.8908 39.3602 50.4391 39.0436 50.582 38.5101L48.6501 37.9926ZM39.9954 47.872L39.3606 47.0993L39.9954 47.872ZM29.5372 45.8316L28.8426 46.5511L29.5372 45.8316ZM27.1688 35.5328C27.3083 34.9984 26.9882 34.4521 26.4538 34.3126C25.9194 34.1732 25.3731 34.4933 25.2336 35.0277L27.1688 35.5328ZM50.582 38.5101C52.22 32.3957 49.8205 27.9468 46.4391 25.5637C44.7721 24.3888 42.8639 23.713 41.0928 23.5857C39.3403 23.4598 37.5874 23.8685 36.4103 25.0456L37.8246 26.4598C38.4513 25.8331 39.5437 25.4796 40.9494 25.5806C42.3364 25.6802 43.8992 26.2204 45.287 27.1985C48.0152 29.1212 50.0612 32.7255 48.6501 37.9926L50.582 38.5101ZM36.4103 25.0456C34.394 27.0619 33.7528 29.29 34.2017 31.5299C34.6345 33.6894 36.0529 35.7227 37.8495 37.5193L39.2637 36.1051C37.5884 34.4298 36.4835 32.7372 36.1627 31.1369C35.8581 29.6169 36.2332 28.0512 37.8246 26.4598L36.4103 25.0456ZM37.8495 37.5193C39.4905 39.1604 40.5896 41.0338 40.9048 42.7483C41.2098 44.4078 40.7932 45.9224 39.3606 47.0993L40.6302 48.6447C42.6919 46.9509 43.2918 44.6716 42.8718 42.3868C42.4619 40.157 41.0945 37.9359 39.2637 36.1051L37.8495 37.5193ZM39.3606 47.0993C38.055 48.1719 36.6087 48.4243 35.0832 48.0638C33.5151 47.6933 31.838 46.6628 30.2317 45.1121L28.8426 46.5511C30.604 48.2514 32.5881 49.5293 34.6232 50.0102C36.701 50.5012 38.8 50.1482 40.6302 48.6447L39.3606 47.0993ZM30.2317 45.1121C27.2373 42.2214 26.2614 39.0092 27.1688 35.5328L25.2336 35.0277C24.1192 39.2973 25.4023 43.2299 28.8426 46.5511L30.2317 45.1121Z" fill="#0451DD"/>
<path d="M37.1743 12.2865L7.35953 42.1013C6.57848 42.8823 6.57848 44.1487 7.35953 44.9297L29.983 67.5532C30.764 68.3342 32.0303 68.3342 32.8114 67.5532L62.6262 37.7383C63.0013 37.3633 63.212 36.8545 63.212 36.3241V13.7007C63.212 12.5961 62.3166 11.7007 61.212 11.7007H38.5886C38.0581 11.7007 37.5494 11.9114 37.1743 12.2865Z" stroke="#0451DD" stroke-width="2"/>
</g>
<defs>
<clipPath id="clip0">
<rect width="74.7973" height="74.7973" fill="white" transform="translate(0.101562 0.0135498)"/>
</clipPath>
</defs>
</svg>
