<svg width="90" height="90" viewBox="0 0 90 90" fill="none" xmlns="http://www.w3.org/2000/svg">
<g clip-path="url(#clip0)">
<path d="M54.8438 80.1562C70.3768 80.1562 82.9688 67.0705 82.9688 50.9283C82.9688 41.6982 79.4531 34.9554 72.4219 28.1109L54.8438 9.84375L37.2656 28.1109C31.1133 34.3276 26.7188 41.6982 26.7188 50.9283C26.7188 67.0705 39.3107 80.1562 54.8438 80.1562Z" fill="#CDDCF8" fill-opacity="0.4"/>
<path d="M45.7031 80.1562C60.8478 80.1562 73.125 66.5657 73.125 49.8009C73.125 49.8009 62.8418 54.0351 59.4141 49.7112C55.9863 45.3872 47.417 54.0351 45.7031 49.7112C43.9893 45.3872 31.9922 54.0349 31.9922 49.7112C31.9922 45.3875 18.2812 49.8009 18.2812 49.8009C18.2812 66.5657 30.5584 80.1562 45.7031 80.1562Z" fill="white"/>
<path d="M46.4591 80.1562C61.9921 80.1562 74.5841 67.0705 74.5841 50.9283C74.5841 41.6982 71.0685 34.9554 64.0372 28.1109L46.4591 9.84375L28.881 28.1109C22.7286 34.3276 18.3341 41.6982 18.3341 50.9283C18.3341 67.0705 30.9261 80.1562 46.4591 80.1562Z" stroke="#0451DD" stroke-width="2" stroke-linecap="round" stroke-linejoin="round"/>
<path d="M18.3341 50.8419C18.3341 50.8419 32.3966 46.6788 32.3966 50.8419C32.3966 55.005 44.7013 46.6786 46.4591 50.8419C48.2169 55.0053 57.006 46.6786 60.5216 50.8419C64.0372 55.0053 74.5841 50.8419 74.5841 50.8419" stroke="#0451DD" stroke-width="2" stroke-linecap="round" stroke-linejoin="round"/>
</g>
<defs>
<clipPath id="clip0">
<rect width="90" height="90" fill="white"/>
</clipPath>
</defs>
</svg>
