<svg width="636" height="234" fill="none" xmlns="http://www.w3.org/2000/svg">
  <path fill="#F2F2F2" d="M132 234l534-.00001749-.00001564-67-534 .00001749zM67 62l-.00001338-94-67-1.8e-7.00001338 94z"/>
  <path fill-rule="evenodd" clip-rule="evenodd" d="M81.4858 223.952C97.5008 230.586 114.666 234 132 234v-67.32c-8.494 0-16.905-1.673-24.752-4.923-7.8473-3.251-14.9776-8.015-20.9837-14.021-6.0061-6.006-10.7704-13.137-14.0208-20.984C68.993 118.905 67 110.494 67 102V34H-.00001469l.00000315 68c0 17.334 3.41428154 34.499 10.04791154 50.514 6.6336 16.015 16.3567 30.567 28.614 42.824 12.2573 12.257 26.8089 21.98 42.8239 28.614z" fill="#F2F2F2"/>
</svg>
