<svg width="90" height="90" viewBox="0 0 90 90" fill="none" xmlns="http://www.w3.org/2000/svg">
<g clip-path="url(#clip0)">
<path d="M51.1262 7.55554C40.6284 7.55554 32.1113 15.662 32.1113 25.6461C32.1113 37.1342 44.7879 55.3397 49.4426 61.6278C49.6358 61.8932 49.889 62.1092 50.1816 62.2581C50.4742 62.4071 50.7979 62.4847 51.1262 62.4847C51.4545 62.4847 51.7782 62.4071 52.0708 62.2581C52.3634 62.1092 52.6166 61.8932 52.8098 61.6278C57.4645 55.3423 70.1411 37.1435 70.1411 25.6461C70.1411 15.662 61.624 7.55554 51.1262 7.55554Z" fill="#CDDCF8" fill-opacity="0.4"/>
<path d="M45.126 10.5555C34.6282 10.5555 26.1111 18.662 26.1111 28.6461C26.1111 40.1342 38.7877 58.3397 43.4424 64.6278C43.6356 64.8932 43.8888 65.1092 44.1814 65.2581C44.474 65.4071 44.7976 65.4847 45.126 65.4847C45.4543 65.4847 45.7779 65.4071 46.0705 65.2581C46.3631 65.1092 46.6164 64.8932 46.8096 64.6278C51.4643 58.3423 64.1408 40.1435 64.1408 28.6461C64.1408 18.662 55.6238 10.5555 45.126 10.5555Z" stroke="#0451DD" stroke-width="2" stroke-linecap="round" stroke-linejoin="round"/>
<path d="M44.6717 35.9096C48.1722 35.9096 51.01 33.0719 51.01 29.5713C51.01 26.0708 48.1722 23.233 44.6717 23.233C41.1711 23.233 38.3334 26.0708 38.3334 29.5713C38.3334 33.0719 41.1711 35.9096 44.6717 35.9096Z" stroke="#0451DD" stroke-width="2" stroke-linecap="round" stroke-linejoin="round"/>
<path d="M59.4443 45H65.8173C66.6602 45 67.4127 45.5285 67.6986 46.3215L78.4782 76.2104C78.9484 77.5139 77.9825 78.8889 76.5968 78.8889H13.9147C12.5413 78.8889 11.5766 77.5364 12.0236 76.2379L22.3132 46.349C22.5911 45.5418 23.3506 45 24.2043 45H31.111" stroke="#0451DD" stroke-width="2" stroke-linecap="round"/>
<path d="M17.7776 60.5555H39.9998" stroke="#0451DD" stroke-width="2" stroke-linecap="round"/>
<path d="M50.5555 60.5555L72.7778 60.5555" stroke="#0451DD" stroke-width="2" stroke-linecap="round"/>
<path d="M60.5554 60.5555V78.3333" stroke="#0451DD" stroke-width="2"/>
</g>
<defs>
<clipPath id="clip0">
<rect width="90" height="90" fill="white"/>
</clipPath>
</defs>
</svg>
