<svg width="90" height="90" viewBox="0 0 90 90" fill="none" xmlns="http://www.w3.org/2000/svg">
<g clip-path="url(#clip0)">
<rect width="90" height="90" fill="white"/>
<path d="M73.1237 56.4821L34.5861 38.315L30.0031 51.2069L41.2455 57.5905L40.8006 62.2419L48.4097 65.88L50.7518 60.8021L69.7779 63.7362L73.1237 56.4821Z" fill="#CDDCF8" fill-opacity="0.4"/>
<path d="M49.451 39.9595L55.0474 26.5542L75.2796 36.092L79.9637 25.9363L61.7187 13.3613L48.2573 7.89858L37.0467 34.112M41.5126 58.4426L26.9432 87.4883L16.827 82.7194L30.8792 52.2524" stroke="#0451DD" stroke-width="2" stroke-linecap="round" stroke-linejoin="round"/>
<path d="M32.2309 31.8408L70.7685 50.0079L67.4227 57.2619L48.3965 54.3279L46.0545 59.4057L25.8223 49.868L32.2309 31.8408Z" stroke="#0451DD" stroke-width="2" stroke-linejoin="round"/>
</g>
<defs>
<clipPath id="clip0">
<rect width="90" height="90" fill="white"/>
</clipPath>
</defs>
</svg>
