<svg width="19" height="19" viewBox="0 0 19 19" fill="none" xmlns="http://www.w3.org/2000/svg">
<path fill-rule="evenodd" clip-rule="evenodd" d="M1.80383 8.3168C1.80383 11.8029 4.62988 14.629 8.11599 14.629C11.6021 14.629 14.4282 11.8029 14.4282 8.3168C14.4282 4.8307 11.6021 2.00465 8.11599 2.00465C4.62988 2.00465 1.80383 4.8307 1.80383 8.3168ZM0.000358582 8.3168C0.000358582 12.7989 3.63385 16.4324 8.11599 16.4324C10.0327 16.4324 11.7942 15.768 13.1828 14.6569L17.3986 18.8727L18.6738 17.5974L14.4578 13.3814C15.5679 11.9932 16.2316 10.2325 16.2316 8.3168C16.2316 3.83466 12.5981 0.201172 8.11599 0.201172C3.63385 0.201172 0.000358582 3.83466 0.000358582 8.3168Z" fill="#0451DD"/>
</svg>
