<?xml version="1.0" encoding="UTF-8" standalone="no"?>
<!-- Generator: Adobe Illustrator 24.0.2, SVG Export Plug-In . SVG Version: 6.00 Build 0)  -->

<svg
   xmlns:dc="http://purl.org/dc/elements/1.1/"
   xmlns:cc="http://creativecommons.org/ns#"
   xmlns:rdf="http://www.w3.org/1999/02/22-rdf-syntax-ns#"
   xmlns:svg="http://www.w3.org/2000/svg"
   xmlns="http://www.w3.org/2000/svg"
   xmlns:sodipodi="http://sodipodi.sourceforge.net/DTD/sodipodi-0.dtd"
   xmlns:inkscape="http://www.inkscape.org/namespaces/inkscape"
   version="1.1"
   id="Layer_1"
   x="0px"
   y="0px"
   viewBox="0 0 22.200001 32.599998"
   xml:space="preserve"
   sodipodi:docname="Globa-Ruta.svg"
   width="22.200001"
   height="32.599998"
   inkscape:version="0.92.4 (5da689c313, 2019-01-14)"><metadata
   id="metadata21"><rdf:RDF><cc:Work
       rdf:about=""><dc:format>image/svg+xml</dc:format><dc:type
         rdf:resource="http://purl.org/dc/dcmitype/StillImage" /><dc:title></dc:title></cc:Work></rdf:RDF></metadata><defs
   id="defs19" /><sodipodi:namedview
   pagecolor="#ffffff"
   bordercolor="#666666"
   borderopacity="1"
   objecttolerance="10"
   gridtolerance="10"
   guidetolerance="10"
   inkscape:pageopacity="0"
   inkscape:pageshadow="2"
   inkscape:window-width="1366"
   inkscape:window-height="705"
   id="namedview17"
   showgrid="false"
   fit-margin-top="0"
   fit-margin-left="0"
   fit-margin-right="0"
   fit-margin-bottom="0"
   inkscape:zoom="6.7428571"
   inkscape:cx="33.27161"
   inkscape:cy="16.3"
   inkscape:window-x="-8"
   inkscape:window-y="-8"
   inkscape:window-maximized="1"
   inkscape:current-layer="Layer_1" />
<style
   type="text/css"
   id="style2">
	.st0{fill:#0451DC;}
	.st1{fill:#FFFFFF;}
</style>
<g
   id="g14"
   transform="translate(-1.9,-1.2)">
	<path
   class="st0"
   d="M 13,1.2 C 6.9,1.2 1.9,6.2 1.9,12.3 1.9,18.5 13,33.8 13,33.8 13,33.8 24.1,18.5 24.1,12.3 24.1,6.2 19.1,1.2 13,1.2 Z"
   id="path4"
   inkscape:connector-curvature="0"
   style="fill:#0451dc" />
	<g
   id="g12">
		<g
   id="g10">
			<path
   class="st1"
   d="M 12.7,7.2 H 9.5 c 0,0 -0.1,0 -0.1,0.1 v 3.2 c 0,0.1 0.1,0.1 0.1,0 0.7,-1.3 1.9,-2.5 3.2,-3.2 0.1,-0.1 0.1,-0.1 0,-0.1 z"
   id="path6"
   inkscape:connector-curvature="0"
   style="fill:#ffffff" />
			<path
   class="st1"
   d="M 16,7.1 C 14.8,7.2 13.7,7.6 12.8,8.2 10.9,9.4 9.6,11.4 9.5,13.8 V 17 c 0,0 0,0.1 0.1,0.1 h 3.2 c 0,0 0.1,0 0.1,-0.1 v -2.8 0 c 0,-2.1 1.7,-3.7 3.7,-3.8 0,0 0.1,0 0.1,-0.1 V 7.2 c 0,0 0,-0.1 -0.1,-0.1 -0.3,0 -0.4,0 -0.6,0 z"
   id="path8"
   inkscape:connector-curvature="0"
   style="fill:#ffffff" />
		</g>
	</g>
</g>
</svg>