<svg width="177" height="181" viewBox="0 0 177 181" fill="none" xmlns="http://www.w3.org/2000/svg">
<path fill-rule="evenodd" clip-rule="evenodd" d="M177 0.271644L88.7854 0.271633L88.7341 0.271648L87.021 0.271648L87.021 0.289699C76.0375 0.514737 65.1862 2.83941 55.0271 7.14959C44.3244 11.6904 34.5997 18.346 26.4082 26.7364C18.2168 35.1267 11.7189 45.0875 7.28573 56.05C2.85253 67.0126 0.570796 78.7621 0.570797 90.6279C0.570797 102.494 2.85254 114.243 7.28573 125.206C11.7189 136.168 18.2168 146.129 26.4082 154.519C34.5997 162.91 44.3244 169.565 55.0271 174.106C65.1862 178.416 76.0375 180.741 87.021 180.966L87.021 180.984L177 180.984L177 119.542L88.7854 119.542C85.0783 119.542 81.4076 118.794 77.9827 117.341C74.5579 115.888 71.446 113.758 68.8247 111.073C66.2034 108.388 64.1241 105.201 62.7055 101.693C61.2869 98.1848 60.5567 94.4249 60.5567 90.6279C60.5567 86.8308 61.2869 83.071 62.7055 79.563C64.1241 76.055 66.2034 72.8675 68.8247 70.1826C71.446 67.4977 74.5579 65.3679 77.9827 63.9148C81.3986 62.4655 85.0592 61.7178 88.7564 61.7139L177 61.7139L177 0.271644Z" fill="#C4C4C4" fill-opacity="0.08"/>
</svg>
