<svg width="18" height="18" viewBox="0 0 18 18" fill="none" xmlns="http://www.w3.org/2000/svg">
<path fill-rule="evenodd" clip-rule="evenodd" d="M6.19238 6.15448H9.59381V7.69317H9.6413C10.1147 6.8079 11.2717 5.87463 12.9969 5.87463C16.5883 5.87463 17.2513 8.20683 17.2513 11.238V17.4144H13.7072V11.9386C13.7072 10.6329 13.6828 8.95331 11.8643 8.95331C10.0192 8.95331 9.73577 10.3757 9.73577 11.8441V17.4144H6.19238V6.15448Z" fill="#FAFAFA"/>
<path fill-rule="evenodd" clip-rule="evenodd" d="M2.34652 0.585571C3.4071 0.585571 4.26918 1.49325 4.26918 2.61047C4.26918 3.72883 3.4071 4.63651 2.34652 4.63651C1.28313 4.63651 0.422607 3.72883 0.422607 2.61047C0.422607 1.49325 1.28313 0.585571 2.34652 0.585571Z" fill="#FAFAFA"/>
<path fill-rule="evenodd" clip-rule="evenodd" d="M0.685303 17.4143H4.00298V6.1731H0.685303V17.4143Z" fill="#FAFAFA"/>
</svg>
