<svg width="17" height="14" viewBox="0 0 17 14" fill="none" xmlns="http://www.w3.org/2000/svg">
<path fill-rule="evenodd" clip-rule="evenodd" d="M5.43318 13.4386C11.5883 13.4386 14.9549 8.48401 14.9549 4.18742C14.9549 4.0467 14.9549 3.90661 14.9451 3.76715C15.6 3.30688 16.1654 2.73698 16.6147 2.08414C16.0039 2.34708 15.356 2.51952 14.6926 2.5957C15.3912 2.18935 15.914 1.55025 16.1638 0.797315C15.5069 1.17604 14.7883 1.44295 14.0388 1.58652C13.0015 0.514845 11.3532 0.252548 10.0182 0.946713C8.68322 1.64088 7.99353 3.11887 8.33588 4.55192C5.64516 4.42086 3.13821 3.18606 1.43895 1.15484C0.550739 2.64048 1.00442 4.54105 2.47503 5.49517C1.94247 5.47983 1.42152 5.34025 0.956149 5.0882C0.956149 5.10151 0.956149 5.11546 0.956149 5.1294C0.956585 6.67713 2.07949 8.01019 3.64093 8.31666C3.14826 8.44721 2.63134 8.46629 2.12989 8.37245C2.56829 9.69694 3.82464 10.6043 5.25637 10.6304C4.07137 11.5353 2.60751 12.0265 1.10034 12.025C0.83408 12.0245 0.568082 12.0088 0.303711 11.9781C1.83409 12.9323 3.61478 13.4384 5.43318 13.4361" fill="#FAFAFA"/>
</svg>
