<svg width="18" height="14" viewBox="0 0 18 14" fill="none" xmlns="http://www.w3.org/2000/svg">
<path fill-rule="evenodd" clip-rule="evenodd" d="M15.6964 1.0923C16.4398 1.29873 17.0251 1.90706 17.2238 2.67926C17.5849 4.0793 17.5849 6.99995 17.5849 6.99995C17.5849 6.99995 17.5849 9.92075 17.2238 11.3206C17.0251 12.0928 16.4398 12.7013 15.6964 12.9076C14.349 13.2828 8.94607 13.2828 8.94607 13.2828C8.94607 13.2828 3.54329 13.2828 2.19591 12.9076C1.45252 12.7013 0.867149 12.0928 0.668468 11.3206C0.307373 9.92075 0.307373 6.99995 0.307373 6.99995C0.307373 6.99995 0.307373 4.0793 0.668468 2.67926C0.867149 1.90706 1.45252 1.29873 2.19591 1.0923C3.54329 0.717285 8.94607 0.717285 8.94607 0.717285C8.94607 0.717285 14.349 0.717285 15.6964 1.0923ZM7.21847 4.30725V9.69256L11.7071 7.00005L7.21847 4.30725Z" fill="#FAFAFA"/>
</svg>
