<svg width="279" height="245" viewBox="0 0 279 245" fill="none" xmlns="http://www.w3.org/2000/svg">
<path fill-rule="evenodd" clip-rule="evenodd" d="M228.486 55.0479C244.501 48.4143 261.666 45 279 45V112.32C270.506 112.32 262.095 113.993 254.248 117.243C246.401 120.494 239.27 125.258 233.264 131.264C227.258 137.27 222.494 144.401 219.243 152.248C215.993 160.095 214 168.506 214 177L214 245H147L147 177C147 159.666 150.414 142.501 157.048 126.486C163.682 110.471 173.405 95.9193 185.662 83.6619C197.919 71.4046 212.471 61.6815 228.486 55.0479Z" fill="#00407B"/>
<circle cx="44.5" cy="44.5" r="44.5" fill="#00407B"/>
</svg>
