<svg width="68" height="90" viewBox="0 0 68 90" fill="none" xmlns="http://www.w3.org/2000/svg">
<rect opacity="0.4" x="6.28711" y="40.9849" width="60.7788" height="49.0151" rx="4" fill="#CDDCF8"/>
<rect x="1" y="35.3105" width="58.7788" height="47.0151" rx="3" stroke="#0451DD" stroke-width="2"/>
<path d="M45.0742 35.2712L15.7045 35.2712L15.7045 21.5667C15.7045 13.4565 22.2792 6.88186 30.3894 6.88186C38.4996 6.88186 45.0742 13.4565 45.0742 21.5667L45.0742 35.2712Z" stroke="#0451DD" stroke-width="2"/>
<path d="M50.9551 35.2712L9.82176 35.2712L9.82176 21.5667C9.82176 10.208 19.0298 1.00004 30.3884 1.00004C41.7471 1.00004 50.9551 10.208 50.9551 21.5667L50.9551 35.2712Z" stroke="#0451DD" stroke-width="2"/>
<path d="M30.8769 49.9952L31.835 49.7087C31.7084 49.2853 31.3189 48.9953 30.877 48.9952C30.4351 48.9952 30.0456 49.2852 29.9189 49.7086L30.8769 49.9952ZM30.877 49.9954L29.9189 50.2819C30.0454 50.705 30.4345 50.995 30.8761 50.9954L30.877 49.9954ZM30.8769 49.9954L30.8761 50.9954C31.3182 50.9957 31.7082 50.7056 31.8349 50.282L30.8769 49.9954ZM28.2231 58.8348L29.1809 59.1223C29.3078 58.6995 29.1424 58.2434 28.7739 58.0002L28.2231 58.8348ZM25.9473 66.4153L24.9895 66.1278C24.8986 66.4306 24.9562 66.7585 25.1449 67.0122C25.3336 67.2658 25.6311 67.4153 25.9473 67.4153V66.4153ZM35.8066 66.4153V67.4153C36.1227 67.4153 36.4203 67.2658 36.609 67.0122C36.7976 66.7585 36.8553 66.4306 36.7644 66.1278L35.8066 66.4153ZM33.5294 58.8302L32.9771 57.9965C32.6096 58.24 32.4448 58.6955 32.5716 59.1178L33.5294 58.8302ZM29.9189 50.2818L29.9189 50.2819L31.835 49.7088L31.835 49.7087L29.9189 50.2818ZM31.8349 50.282L31.835 50.2819L29.9189 49.7086L29.9189 49.7087L31.8349 50.282ZM30.8728 50.9954C30.8739 50.9954 30.875 50.9954 30.8761 50.9954L30.8777 48.9954C30.8761 48.9954 30.8744 48.9954 30.8728 48.9954V50.9954ZM27.0562 54.8119C27.0562 52.7041 28.765 50.9954 30.8728 50.9954V48.9954C27.6604 48.9954 25.0562 51.5995 25.0562 54.8119H27.0562ZM28.7739 58.0002C27.7369 57.3158 27.0562 56.1431 27.0562 54.8119H25.0562C25.0562 56.8432 26.0983 58.6306 27.6723 59.6694L28.7739 58.0002ZM26.905 66.7029L29.1809 59.1223L27.2653 58.5472L24.9895 66.1278L26.905 66.7029ZM35.8066 65.4153H25.9473V67.4153H35.8066V65.4153ZM32.5716 59.1178L34.8488 66.7029L36.7644 66.1278L34.4872 58.5427L32.5716 59.1178ZM34.6893 54.8119C34.6893 56.1407 34.011 57.3116 32.9771 57.9965L34.0817 59.6639C35.651 58.6243 36.6893 56.8396 36.6893 54.8119H34.6893ZM30.8761 50.9954C32.9824 50.9971 34.6893 52.7052 34.6893 54.8119H36.6893C36.6893 51.6012 34.0879 48.9981 30.8778 48.9954L30.8761 50.9954Z" fill="#0451DD"/>
</svg>
