<svg width="90" height="90" viewBox="0 0 90 90" fill="none" xmlns="http://www.w3.org/2000/svg">
<g clip-path="url(#clip0)">
<rect x="6" y="16" width="49" height="46" rx="23" fill="#CDDCF8" fill-opacity="0.4"/>
<path d="M20.7417 38.3569C25.1963 32.8005 33.6305 31.3958 39.4512 38.9742" stroke="#0451DD" stroke-width="2" stroke-linecap="round"/>
<path d="M26 41.7643C27.9048 39.643 31.5111 39.1067 34 42" stroke="#0451DD" stroke-width="2" stroke-linecap="round"/>
<path d="M17 32.9416C23.2365 25.7977 35.0443 23.9917 43.1933 33.7354" stroke="#0451DD" stroke-width="2" stroke-linecap="round"/>
<path d="M12.5 53.4896H54.6693V30V27.5" stroke="#0451DD" stroke-width="2" stroke-linecap="round" stroke-linejoin="round"/>
<ellipse cx="20.0615" cy="69.1979" rx="7.31245" ry="7.58333" stroke="#0451DD" stroke-width="2" stroke-linecap="round" stroke-linejoin="round"/>
<ellipse cx="39.3125" cy="69.1979" rx="7.31245" ry="7.58333" stroke="#0451DD" stroke-width="2" stroke-linecap="round" stroke-linejoin="round"/>
<ellipse cx="63.2812" cy="69.1979" rx="7.31245" ry="7.58333" stroke="#0451DD" stroke-width="2" stroke-linecap="round"/>
<path d="M54.6693 27.4893H69.2693C70.072 27.4893 70.7969 27.9692 71.1105 28.7082L81.4826 53.1544C81.535 53.2779 81.562 53.4108 81.562 53.545V65.1143C81.562 66.7712 80.2189 68.1143 78.562 68.1143H70.5933M12.0937 53.4896H11.4375C9.78065 53.4896 8.4375 54.8327 8.4375 56.4896V65.1143C8.4375 66.7712 9.78065 68.1143 11.4375 68.1143H12.0937" stroke="#0451DD" stroke-width="2" stroke-linecap="round" stroke-linejoin="round"/>
<path d="M27 69H33" stroke="#0451DD" stroke-width="2"/>
<path d="M47 69H56" stroke="#0451DD" stroke-width="2"/>
<line x1="75.25" y1="56.8232" x2="80.5624" y2="56.8232" stroke="#0451DD" stroke-width="2" stroke-linecap="round"/>
<line x1="75.25" y1="61.6976" x2="80.5624" y2="61.6976" stroke="#0451DD" stroke-width="2" stroke-linecap="round"/>
<path d="M66.937 27.4893V49.2393C66.937 49.7916 67.3847 50.2393 67.937 50.2393H79.2115" stroke="#0451DD" stroke-width="2" stroke-linecap="round" stroke-linejoin="round"/>
</g>
<defs>
<clipPath id="clip0">
<rect width="90" height="90" fill="white"/>
</clipPath>
</defs>
</svg>
