<svg width="90" height="90" viewBox="0 0 90 90" fill="none" xmlns="http://www.w3.org/2000/svg">
<g clip-path="url(#clip0)">
<path d="M38 56L61.5099 17.2521C63.6145 13.7835 67.6309 11.9604 71.6274 12.6598C78.2238 13.8142 81.7695 21.0734 78.6246 26.9857L60 62C60 62 57.5 60 52.5 58.5C48.3802 57.2641 38 56 38 56Z" fill="#CDDCF8" fill-opacity="0.4"/>
<ellipse cx="34.5" cy="68" rx="29.5" ry="12" fill="#CDDCF8" fill-opacity="0.4"/>
<path d="M43 59.4928C38.2408 58.8965 33.6735 58.8572 28.9501 59.4928C24.2267 60.1284 20.2007 61.3419 17.5111 62.9405C14.8214 64.5391 13.6223 66.4313 14.1041 68.3168C14.5859 70.2022 16.721 71.9728 20.1704 73.3476C23.6199 74.7223 28.186 75.6224 33.144 75.9049C38.102 76.1875 43.1677 75.8363 47.5371 74.9071C51.9065 73.9779 55.3291 72.524 57.2616 70.7762C59.1942 69.0283 59.526 67.0867 58.2043 65.2594" stroke="#0451DD" stroke-width="2" stroke-linecap="round"/>
<ellipse cx="36.5" cy="67.5" rx="15.5" ry="4.5" stroke="#0451DD" stroke-width="1.75"/>
<ellipse cx="37" cy="67.5" rx="6" ry="1.5" stroke="#0451DD" stroke-width="1.19737"/>
<path d="M57.1346 64.499C56.8579 64.9769 57.021 65.5887 57.499 65.8654C57.9769 66.1421 58.5887 65.979 58.8654 65.501L57.1346 64.499ZM67.3216 17.9321L66.4585 17.4271L67.3216 17.9321ZM66.4585 17.4271L42.1369 58.995L43.8631 60.005L68.1847 18.4372L66.4585 17.4271ZM58.8654 65.501L81.5967 26.2379L79.8659 25.2358L57.1346 64.499L58.8654 65.501ZM76.7869 13.5416C72.8585 12.2321 68.5497 13.853 66.4585 17.4271L68.1847 18.4372C69.7984 15.6793 73.1231 14.4285 76.1545 15.4389L76.7869 13.5416ZM76.1545 15.4389C80.2149 16.7924 82.0103 21.5318 79.8659 25.2358L81.5967 26.2379C84.3758 21.4376 82.0491 15.2956 76.7869 13.5416L76.1545 15.4389Z" fill="#0451DD"/>
</g>
<defs>
<clipPath id="clip0">
<rect width="90" height="90" fill="white"/>
</clipPath>
</defs>
</svg>
