<svg width="90" height="90" viewBox="0 0 90 90" fill="none" xmlns="http://www.w3.org/2000/svg">
<g clip-path="url(#clip0)">
<rect x="43" y="6" width="13" height="76" rx="6.5" fill="#CDDCF8" fill-opacity="0.4"/>
<mask id="path-2-inside-1" fill="white">
<path fill-rule="evenodd" clip-rule="evenodd" d="M50 15.325L49.9868 15.1517C49.8102 12.8302 47.8679 11 45.5 11C43.1321 11 41.1898 12.8302 41.0132 15.1517L41 15.325V15.5V63.9008V64.9538L40.1318 65.5497C37.6325 67.2652 36 70.1367 36 73.3889C36 78.6356 40.2533 82.8889 45.5 82.8889C50.7467 82.8889 55 78.6356 55 73.3889C55 70.1367 53.3675 67.2652 50.8682 65.5497L50 64.9538V63.9008V15.5V15.325ZM51.9811 15H52V15.5V17V63.9008C55.0195 65.9733 57 69.4498 57 73.3889C57 79.7402 51.8513 84.8889 45.5 84.8889C39.1487 84.8889 34 79.7402 34 73.3889C34 69.4498 35.9805 65.9733 39 63.9008V17V15.5V15H39.0189C39.2743 11.6438 42.0784 9 45.5 9C48.9216 9 51.7257 11.6438 51.9811 15Z"/>
</mask>
<path d="M49.9868 15.1517L51.9811 15L49.9868 15.1517ZM50 15.325H52V15.249L51.9942 15.1733L50 15.325ZM41.0132 15.1517L43.0074 15.3034V15.3034L41.0132 15.1517ZM41 15.325L39.0058 15.1733L39 15.249V15.325H41ZM41 64.9538L42.1318 66.6027L43 66.0068V64.9538H41ZM40.1318 65.5497L41.2636 67.1987L40.1318 65.5497ZM50.8682 65.5497L49.7364 67.1987H49.7364L50.8682 65.5497ZM50 64.9538H48V66.0068L48.8682 66.6027L50 64.9538ZM52 15H54V13H52V15ZM51.9811 15L49.9868 15.1517L50.1274 17H51.9811V15ZM52 63.9008H50V64.9538L50.8682 65.5497L52 63.9008ZM39 63.9008L40.1318 65.5497L41 64.9538V63.9008H39ZM39 15V13H37V15H39ZM39.0189 15V17H40.8726L41.0132 15.1517L39.0189 15ZM47.9926 15.3034L48.0058 15.4767L51.9942 15.1733L51.9811 15L47.9926 15.3034ZM45.5 13C46.8151 13 47.8948 14.0176 47.9926 15.3034L51.9811 15C51.7257 11.6428 48.9207 9 45.5 9V13ZM43.0074 15.3034C43.1052 14.0176 44.1849 13 45.5 13V9C42.0793 9 39.2743 11.6428 39.0189 15L43.0074 15.3034ZM42.9942 15.4767L43.0074 15.3034L39.0189 15L39.0058 15.1733L42.9942 15.4767ZM43 15.5V15.325H39V15.5H43ZM43 63.9008V15.5H39V63.9008H43ZM43 64.9538V63.9008H39V64.9538H43ZM41.2636 67.1987L42.1318 66.6027L39.8682 63.3049L39 63.9008L41.2636 67.1987ZM38 73.3889C38 70.823 39.2849 68.5568 41.2636 67.1987L39 63.9008C35.98 65.9736 34 69.4504 34 73.3889H38ZM45.5 80.8889C41.3579 80.8889 38 77.5311 38 73.3889H34C34 79.7402 39.1487 84.8889 45.5 84.8889V80.8889ZM53 73.3889C53 77.5311 49.6421 80.8889 45.5 80.8889V84.8889C51.8513 84.8889 57 79.7402 57 73.3889H53ZM49.7364 67.1987C51.7151 68.5568 53 70.823 53 73.3889H57C57 69.4504 55.02 65.9736 52 63.9008L49.7364 67.1987ZM48.8682 66.6027L49.7364 67.1987L52 63.9008L51.1318 63.3049L48.8682 66.6027ZM48 63.9008V64.9538H52V63.9008H48ZM48 15.5V63.9008H52V15.5H48ZM48 15.325V15.5H52V15.325H48ZM52 13H51.9811V17H52V13ZM54 15.5V15H50V15.5H54ZM54 17V15.5H50V17H54ZM54 63.9008V17H50V63.9008H54ZM59 73.3889C59 68.763 56.6715 64.6814 53.1318 62.2518L50.8682 65.5497C53.3675 67.2652 55 70.1367 55 73.3889H59ZM45.5 86.8889C52.9558 86.8889 59 80.8448 59 73.3889H55C55 78.6356 50.7467 82.8889 45.5 82.8889V86.8889ZM32 73.3889C32 80.8448 38.0442 86.8889 45.5 86.8889V82.8889C40.2533 82.8889 36 78.6356 36 73.3889H32ZM37.8682 62.2518C34.3285 64.6814 32 68.763 32 73.3889H36C36 70.1367 37.6325 67.2652 40.1318 65.5497L37.8682 62.2518ZM37 17V63.9008H41V17H37ZM37 15.5V17H41V15.5H37ZM37 15V15.5H41V15H37ZM39.0189 13H39V17H39.0189V13ZM45.5 7C41.0247 7 37.3587 10.4574 37.0247 14.8483L41.0132 15.1517C41.1898 12.8302 43.1321 11 45.5 11V7ZM53.9753 14.8483C53.6413 10.4574 49.9753 7 45.5 7V11C47.8679 11 49.8102 12.8302 49.9868 15.1517L53.9753 14.8483Z" fill="#0451DD" mask="url(#path-2-inside-1)"/>
<circle cx="45.4998" cy="73.3889" r="4.11111" stroke="#0451DD" stroke-width="2"/>
<path d="M45.5 68.2778V35.0555" stroke="#0451DD" stroke-width="2" stroke-linecap="round"/>
<path d="M46 19H55" stroke="#0451DD" stroke-width="2" stroke-linecap="round"/>
<path d="M46 26H55" stroke="#0451DD" stroke-width="2" stroke-linecap="round"/>
</g>
<defs>
<clipPath id="clip0">
<rect width="90" height="90" fill="white"/>
</clipPath>
</defs>
</svg>
