<svg width="90" height="90" viewBox="0 0 90 90" fill="none" xmlns="http://www.w3.org/2000/svg">
<g clip-path="url(#clip0)">
<circle cx="37" cy="26" r="19" fill="#CDDCF8" fill-opacity="0.4"/>
<path d="M38.6704 34.8831C40.299 34.2291 41.6505 33.0307 42.4945 31.4919C43.3385 29.9532 43.6229 28.1694 43.2992 26.4445C42.9755 24.7196 42.0637 23.1603 40.7192 22.0323C39.3747 20.9043 37.6807 20.2774 35.9258 20.2584C34.1709 20.2394 32.4637 20.8294 31.095 21.928C29.7264 23.0266 28.781 24.5658 28.42 26.2833C28.059 28.0008 28.3047 29.7903 29.1152 31.3469C29.9256 32.9036 31.2508 34.1311 32.8649 34.8202" stroke="#0451DD" stroke-width="2"/>
<path d="M36.2678 14.5355V10" stroke="#0451DD" stroke-width="2" stroke-linecap="round"/>
<path d="M21.2071 24.2071L18 21" stroke="#0451DD" stroke-width="2" stroke-linecap="round"/>
<path d="M50 24.2071L53.2071 21" stroke="#0451DD" stroke-width="2" stroke-linecap="round"/>
<path d="M63 53V67V67C63 70.5161 62.7983 74.1764 60.9619 77.1749C57.3941 83 51.5315 83 45.0933 83C37.2082 83 31.9515 75.5768 30.3088 72.299L21.895 52.1704C21.3042 50.7572 20.8632 49.1227 21.7284 47.8586C22.062 47.3712 22.5339 46.9055 23.1903 46.5588C24.1889 46.0314 25.2348 46.2303 26.085 46.6418C27.1839 47.1736 27.837 48.2778 28.3592 49.3812L32.4991 58.1274V31.4706C32.6816 30.5065 33.1562 28 35.7845 28C38.4129 28 39.2525 30.5065 39.07 31.4706V56.5" stroke="#0451DD" stroke-width="2" stroke-linecap="round"/>
<path d="M56 50C56 48.6739 55.4732 47.4021 54.5355 46.4645C53.5979 45.5268 52.3261 45 51 45C49.6739 45 48.4021 45.5268 47.4645 46.4645C46.5268 47.4021 46 48.6739 46 50L48 50C48 49.2043 48.3161 48.4413 48.8787 47.8787C49.4413 47.3161 50.2044 47 51 47C51.7956 47 52.5587 47.3161 53.1213 47.8787C53.6839 48.4413 54 49.2043 54 50H56Z" fill="#0451DD"/>
<path d="M64 53C64 51.6739 63.4732 50.4021 62.5355 49.4645C61.5979 48.5268 60.3261 48 59 48C57.6739 48 56.4021 48.5268 55.4645 49.4645C54.5268 50.4021 54 51.6739 54 53L56 53C56 52.2043 56.3161 51.4413 56.8787 50.8787C57.4413 50.3161 58.2044 50 59 50C59.7956 50 60.5587 50.3161 61.1213 50.8787C61.6839 51.4413 62 52.2043 62 53H64Z" fill="#0451DD"/>
<path d="M48 47C48 45.6739 47.4732 44.4021 46.5355 43.4645C45.5979 42.5268 44.3261 42 43 42C41.6739 42 40.4021 42.5268 39.4645 43.4645C38.5268 44.4021 38.5 45.6739 38.5 47L40 47C40 46.2043 40.3161 45.4413 40.8787 44.8787C41.4413 44.3161 42.2044 44 43 44C43.7956 44 44.5587 44.3161 45.1213 44.8787C45.6839 45.4413 46 46.2044 46 47H48Z" fill="#0451DD"/>
<path d="M46 57C46 57.5523 46.4477 58 47 58C47.5523 58 48 57.5523 48 57L46 57ZM46 47L46 57L48 57L48 47L46 47Z" fill="#0451DD"/>
<path d="M54 59C54 59.5523 54.4477 60 55 60C55.5523 60 56 59.5523 56 59H54ZM54 50V59H56V50H54Z" fill="#0451DD"/>
</g>
<defs>
<clipPath id="clip0">
<rect width="90" height="90" fill="white"/>
</clipPath>
</defs>
</svg>
