<svg width="327" height="530" viewBox="0 0 327 530" fill="none" xmlns="http://www.w3.org/2000/svg">
<g opacity="0.1">
<path fill-rule="evenodd" clip-rule="evenodd" d="M366.411 509.828C335.893 522.469 303.295 529.287 270.3 529.947L270.3 530L265 530L-2.3167e-05 530L-1.52902e-05 349.8L265 349.8C276.136 349.8 287.163 347.607 297.452 343.345C307.74 339.083 317.088 332.837 324.963 324.963C332.837 317.088 339.083 307.74 343.345 297.452C347.607 287.163 349.8 276.136 349.8 265C349.8 253.864 347.607 242.837 343.345 232.548C339.083 222.26 332.837 212.912 324.963 205.037C317.088 197.163 307.74 190.917 297.452 186.655C287.163 182.393 276.136 180.2 265 180.2L-7.87679e-06 180.2L0 -2.3167e-05L265 -1.15835e-05L270.3 -1.13518e-05L270.3 0.0529903C303.295 0.712986 335.893 7.53086 366.411 20.1719C398.562 33.4894 427.776 53.0092 452.383 77.6167C476.991 102.224 496.511 131.438 509.828 163.589C523.146 195.74 530 230.2 530 265C530 299.8 523.146 334.26 509.828 366.411C496.511 398.562 476.991 427.776 452.383 452.383C427.776 476.991 398.562 496.511 366.411 509.828Z" fill="#C4C4C4"/>
</g>
</svg>
