<svg width="288" height="530" viewBox="0 0 288 530" fill="none" xmlns="http://www.w3.org/2000/svg">
<g opacity="0.1">
<path fill-rule="evenodd" clip-rule="evenodd" d="M124.411 509.828C93.8929 522.469 61.295 529.287 28.3 529.947L28.3 530L23 530L-242 530L-242 349.8L23 349.8C34.1361 349.8 45.1631 347.607 55.4515 343.345C65.7399 339.083 75.0882 332.837 82.9626 324.963C90.8371 317.088 97.0834 307.74 101.345 297.452C105.607 287.163 107.8 276.136 107.8 265C107.8 253.864 105.607 242.837 101.345 232.548C97.0834 222.26 90.837 212.912 82.9626 205.037C75.0882 197.163 65.74 190.917 55.4515 186.655C45.1631 182.393 34.1361 180.2 23 180.2L-242 180.2L-242 -2.3167e-05L23 -1.15835e-05L28.3 -1.13518e-05L28.3 0.0529903C61.295 0.712986 93.8929 7.53086 124.411 20.1719C156.562 33.4894 185.776 53.0092 210.383 77.6167C234.991 102.224 254.511 131.438 267.828 163.589C281.146 195.74 288 230.2 288 265C288 299.8 281.146 334.26 267.828 366.411C254.511 398.562 234.991 427.776 210.383 452.383C185.776 476.991 156.562 496.511 124.411 509.828Z" fill="#C4C4C4"/>
</g>
</svg>
