<svg width="613" height="317" viewBox="0 0 613 317" fill="none" xmlns="http://www.w3.org/2000/svg">
<path opacity="0.15" fill-rule="evenodd" clip-rule="evenodd" d="M24.7681 121.311C8.41618 82.8504 -1.01691e-05 41.629 -1.38565e-05 -8.34321e-05L165.944 -9.06858e-05C165.944 20.3982 170.068 40.5966 178.08 59.4422C186.093 78.2877 197.837 95.4111 212.642 109.835C227.447 124.259 245.023 135.7 264.366 143.506C283.71 151.312 304.443 156.098 325.38 156.098L493 156.098L493 317L325.38 317C282.651 317 240.339 308.801 200.863 292.87C161.386 276.939 125.516 253.589 95.3016 224.153C65.0873 194.717 41.1199 159.771 24.7681 121.311Z" fill="#0451DD"/>
<rect opacity="0.15" x="480" y="156" width="190" height="161" fill="#0451DD"/>
</svg>
