<svg width="1750" height="2468" viewBox="0 0 1750 2468" fill="none" xmlns="http://www.w3.org/2000/svg">
<g opacity="0.5">
<g opacity="0.1">
<rect x="1072" y="1614" width="194" height="142" transform="rotate(-90 1072 1614)" fill="#C4C4C4"/>
</g>
<g opacity="0.1">
<path fill-rule="evenodd" clip-rule="evenodd" d="M1215.31 1894.59L1215.31 1614L1073.97 1614L1073.97 1894.59C1073.97 1898.86 1074.16 1903.08 1074.53 1907.25C1080.94 1979.38 1141.52 2035.92 1215.31 2035.92H1329.62V1894.59H1215.31Z" fill="#C4C4C4"/>
</g>
<path fill-rule="evenodd" clip-rule="evenodd" d="M1336.58 22.76C1371.01 8.49713 1407.79 0.804507 1445.02 0.0598179L1445.02 3.49423e-06L1451 3.56554e-06L1750 7.13108e-06L1750 203.32L1451 203.32C1438.44 203.32 1425.99 205.795 1414.38 210.603C1402.78 215.412 1392.23 222.459 1383.34 231.344C1374.46 240.229 1367.41 250.776 1362.6 262.385C1357.79 273.993 1355.32 286.435 1355.32 299C1355.32 311.565 1357.79 324.007 1362.6 335.615C1367.41 347.224 1374.46 357.771 1383.34 366.656C1392.23 375.541 1402.78 382.588 1414.38 387.397C1425.99 392.205 1438.44 394.68 1451 394.68L1750 394.68L1750 598L1451 598C1450.98 598 1450.97 598 1450.95 598L1445.02 598L1445.02 597.94C1407.79 597.196 1371.01 589.503 1336.58 575.24C1300.3 560.214 1267.34 538.19 1239.58 510.425C1211.81 482.66 1189.79 449.699 1174.76 413.422C1159.73 377.146 1152 338.265 1152 299C1152 259.735 1159.73 220.854 1174.76 184.578C1189.79 148.301 1211.81 115.34 1239.58 87.5751C1267.34 59.8104 1300.3 37.7862 1336.58 22.76Z" fill="#C4C4C4" fill-opacity="0.1"/>
<path fill-rule="evenodd" clip-rule="evenodd" d="M246.382 100.618L246.382 300.374L347 300.374L347 100.618C347 93.6717 346.296 86.8899 344.956 80.3399C335.574 34.49 295.006 -1.77399e-05 246.382 -2.19907e-05L165 -2.91054e-05L165 100.618L246.382 100.618Z" fill="#C4C4C4" fill-opacity="0.1"/>
<path d="M367 515C367 552.555 336.555 583 299 583L244 583L244 515L367 515Z" fill="#C4C4C4" fill-opacity="0.1"/>
<circle cx="1469.5" cy="1551.5" r="62.5" transform="rotate(-180 1469.5 1551.5)" fill="#C4C4C4" fill-opacity="0.1"/>
<path fill-rule="evenodd" clip-rule="evenodd" d="M305.5 2468C474.223 2468 611 2331.22 611 2162.5C611 1993.78 474.223 1857 305.5 1857C136.777 1857 0 1993.78 0 2162.5C0 2331.22 136.777 2468 305.5 2468ZM305.5 2302.78C382.975 2302.78 445.781 2239.97 445.781 2162.5C445.781 2085.03 382.975 2022.22 305.5 2022.22C228.025 2022.22 165.219 2085.03 165.219 2162.5C165.219 2239.97 228.025 2302.78 305.5 2302.78Z" fill="#C4C4C4" fill-opacity="0.1"/>
</g>
</svg>
