<svg width="1523" height="2630" viewBox="0 0 1523 2630" fill="none" xmlns="http://www.w3.org/2000/svg">
<path d="M1471 637L-1.71111e-05 637" stroke="#333333" stroke-width="0.25"/>
<path d="M1471 1471H-1.71111e-05" stroke="#333333" stroke-width="0.25"/>
<path opacity="0.7" d="M1507 337L6.5 337" stroke="url(#paint0_linear)" stroke-width="0.25"/>
<path d="M102 94L102 1014" stroke="url(#paint1_linear)" stroke-width="0.5"/>
<path d="M386 920L386 405" stroke="url(#paint2_linear)" stroke-width="0.5"/>
<path d="M1523 1739L1008 1739" stroke="url(#paint3_linear)" stroke-width="0.5"/>
<path d="M1186 2630L1186 1494" stroke="url(#paint4_linear)" stroke-width="0.5"/>
<path d="M1210 1014L1210 121" stroke="url(#paint5_linear)" stroke-width="0.5"/>
<path d="M213 1626L213 955" stroke="url(#paint6_linear)" stroke-width="0.433417"/>
<path d="M608 0L608 154" stroke="url(#paint7_linear)" stroke-width="0.25"/>
<path d="M608 136V336" stroke="url(#paint8_linear)" stroke-width="0.25"/>
<defs>
<linearGradient id="paint0_linear" x1="1507" y1="337.5" x2="6.5" y2="337.5" gradientUnits="userSpaceOnUse">
<stop stop-color="#AFAFAF"/>
<stop offset="1" stop-color="#D8D8D8" stop-opacity="0"/>
</linearGradient>
<linearGradient id="paint1_linear" x1="102.5" y1="94" x2="102.5" y2="1014" gradientUnits="userSpaceOnUse">
<stop stop-color="#AFAFAF"/>
<stop offset="1" stop-color="#D8D8D8" stop-opacity="0"/>
</linearGradient>
<linearGradient id="paint2_linear" x1="385.5" y1="920" x2="385.5" y2="405" gradientUnits="userSpaceOnUse">
<stop stop-color="#AFAFAF"/>
<stop offset="1" stop-color="#D8D8D8" stop-opacity="0"/>
</linearGradient>
<linearGradient id="paint3_linear" x1="1523" y1="1739.5" x2="1008" y2="1739.5" gradientUnits="userSpaceOnUse">
<stop stop-color="#AFAFAF"/>
<stop offset="1" stop-color="#D8D8D8" stop-opacity="0"/>
</linearGradient>
<linearGradient id="paint4_linear" x1="1185.5" y1="2630" x2="1185.5" y2="1494" gradientUnits="userSpaceOnUse">
<stop stop-color="#AFAFAF"/>
<stop offset="1" stop-color="#D8D8D8" stop-opacity="0"/>
</linearGradient>
<linearGradient id="paint5_linear" x1="1209.5" y1="1014" x2="1209.5" y2="121" gradientUnits="userSpaceOnUse">
<stop stop-color="#AFAFAF"/>
<stop offset="1" stop-color="#D8D8D8" stop-opacity="0"/>
</linearGradient>
<linearGradient id="paint6_linear" x1="212.5" y1="1626" x2="212.5" y2="955" gradientUnits="userSpaceOnUse">
<stop stop-color="#AFAFAF"/>
<stop offset="1" stop-color="#D8D8D8" stop-opacity="0"/>
</linearGradient>
<linearGradient id="paint7_linear" x1="608.5" y1="2.18557e-08" x2="608.5" y2="154" gradientUnits="userSpaceOnUse">
<stop stop-color="#AFAFAF"/>
<stop offset="1" stop-color="#D8D8D8" stop-opacity="0"/>
</linearGradient>
<linearGradient id="paint8_linear" x1="608.5" y1="136" x2="608.5" y2="336" gradientUnits="userSpaceOnUse">
<stop stop-color="#AFAFAF"/>
<stop offset="1" stop-color="#D8D8D8" stop-opacity="0"/>
</linearGradient>
</defs>
</svg>
